<svg width="24" height="24" viewBox="0 0 24 24" fill="none" xmlns="http://www.w3.org/2000/svg">
<path d="M18.8535 3.85514C19.505 3.9858 20.0144 4.49514 20.145 5.14669C20.2381 5.61355 20.2247 6.09539 20.1057 6.55633C19.9867 7.01727 19.7653 7.44543 19.4579 7.80891L17.0126 10.6996L18.7406 17.0382C18.7922 17.2272 18.7929 17.4265 18.7426 17.6159C18.6923 17.8052 18.5929 17.9779 18.4543 18.1165L17.297 19.2738C17.1987 19.372 17.079 19.4461 16.9472 19.4902C16.8155 19.5343 16.6752 19.5472 16.5376 19.5279C16.4 19.5086 16.2688 19.4576 16.1542 19.379C16.0397 19.3003 15.9449 19.1962 15.8775 19.0747L13.217 14.2862L10.321 16.2907V16.9902C10.321 17.2845 10.2037 17.568 9.99568 17.776L8.49968 19.2711C8.39147 19.3795 8.25734 19.4583 8.11005 19.5002C7.96276 19.5421 7.80721 19.5456 7.65818 19.5105C7.50914 19.4753 7.37159 19.4025 7.25859 19.2992C7.14559 19.1959 7.0609 19.0653 7.01257 18.92L6.52902 17.4702L5.07924 16.9867C4.93393 16.9384 4.80341 16.8537 4.70006 16.7407C4.59672 16.6277 4.524 16.4901 4.48881 16.3411C4.45362 16.1921 4.45714 16.0365 4.49903 15.8892C4.54092 15.7419 4.61978 15.6078 4.72813 15.4996L6.22413 14.0036C6.32732 13.9004 6.44983 13.8186 6.58466 13.7628C6.71948 13.7069 6.86398 13.6782 7.00991 13.6782H7.70946L9.71391 10.7822L4.92546 8.1218C4.80398 8.05434 4.69982 7.9596 4.62117 7.84505C4.54253 7.73049 4.49155 7.59924 4.47225 7.46163C4.45294 7.32402 4.46585 7.18381 4.50994 7.05204C4.55404 6.92027 4.62812 6.80053 4.72635 6.70225L5.88368 5.54491C6.02222 5.40638 6.19492 5.30695 6.38427 5.25668C6.57363 5.20641 6.77291 5.20711 6.96191 5.25869L13.2997 6.98669L16.1912 4.54136C16.5547 4.23396 16.9829 4.01253 17.4438 3.89356C17.9048 3.77459 18.3866 3.76204 18.8535 3.85514Z" fill="white"/>
</svg>
