<svg width="24" height="24" viewBox="0 0 24 24" fill="none" xmlns="http://www.w3.org/2000/svg">
<path d="M23 7.65217C23 8.63654 22.1127 9.47825 21.075 9.47825H16.7845C17.4866 10.1886 17.5728 11.5518 16.5139 12.4343C17.1278 13.3855 16.6061 14.6433 15.807 15.0307C16.1926 17.0783 14.864 18 12.6875 18C12.5695 18 12.117 17.9915 12 17.9919C9.33718 17.9989 8.69596 16.6975 6.68343 16.3954C6.18186 16.3201 5.8125 15.9 5.8125 15.4078V8.26088L5.81259 8.26083C5.81306 7.49558 6.26836 6.76546 7.03565 6.43396C8.27684 5.89254 11.1354 4.39071 11.6562 3.21217C11.9913 2.45408 12.5751 2.00033 13.375 2C14.8455 1.99942 15.8565 3.46242 15.2707 4.78783C15.1168 5.13613 14.9136 5.48242 14.6626 5.82608H21.075C22.0826 5.82608 23 6.68204 23 7.65217ZM5.125 7.66667V15.6667C5.125 16.219 4.6633 16.6667 4.09375 16.6667H2.03125C1.4617 16.6667 1 16.219 1 15.6667V7.66667C1 7.11438 1.4617 6.66667 2.03125 6.66667H4.09375C4.6633 6.66667 5.125 7.11438 5.125 7.66667ZM3.92188 14.6667C3.92188 14.2064 3.53713 13.8333 3.0625 13.8333C2.58787 13.8333 2.20312 14.2064 2.20312 14.6667C2.20312 15.1269 2.58787 15.5 3.0625 15.5C3.53713 15.5 3.92188 15.1269 3.92188 14.6667Z" fill="white"/>
</svg>
